<svg width="15" height="14" viewBox="0 0 15 14" fill="none" xmlns="http://www.w3.org/2000/svg">
<path d="M7.29289 1.70711C6.90237 1.31658 6.90237 0.683418 7.29289 0.292893C7.68342 -0.0976311 8.31658 -0.0976311 8.70711 0.292893L14.7071 6.29289C15.0857 6.67147 15.0989 7.28106 14.7372 7.67572L9.23715 13.6757C8.86396 14.0828 8.23139 14.1103 7.82428 13.7372C7.41716 13.364 7.38965 12.7314 7.76285 12.3243L12.6159 7.03008L7.29289 1.70711Z" fill="#FF9100"/>
<path opacity="0.3" d="M0.292892 1.70711C-0.0976324 1.31658 -0.0976324 0.683418 0.292892 0.292893C0.683416 -0.0976311 1.31658 -0.0976311 1.70711 0.292893L7.70711 6.29289C8.08568 6.67147 8.09893 7.28106 7.73715 7.67572L2.23715 13.6757C1.86396 14.0828 1.23139 14.1103 0.824274 13.7372C0.417155 13.364 0.389652 12.7314 0.762845 12.3243L5.61586 7.03008L0.292892 1.70711Z" fill="#FF9100"/>
</svg>
