<svg width="234" height="234" viewBox="0 0 234 234" fill="none" xmlns="http://www.w3.org/2000/svg">
<circle cx="117" cy="117" r="117" fill="#FF9100" fill-opacity="0.03"/>
<circle cx="117" cy="117" r="102" fill="#FF9100" fill-opacity="0.03"/>
<circle cx="117" cy="117" r="84" fill="white"/>
<path fill-rule="evenodd" clip-rule="evenodd" d="M128.569 86.6585C127.79 81.3621 128.699 76.8126 131.298 73.01C133.896 69.2075 142.405 66.4234 156.824 64.658C153.627 66.695 151.158 69.4791 149.42 73.01C146.811 78.3065 144.548 84.6214 141.041 86.6585C138.702 88.0166 135.13 88.424 130.323 87.8808C135.2 81.4397 138.223 77.608 139.393 76.3858C140.326 75.4102 134.337 79.3512 131.298 82.7881C130.785 83.3674 129.876 84.6576 128.569 86.6585Z" fill="#7DBC0F"/>
<path fill-rule="evenodd" clip-rule="evenodd" d="M123.715 80.442C124.284 76.911 123.62 73.878 121.721 71.343C119.823 68.8079 113.604 66.9519 103.067 65.7749C105.404 67.133 107.208 68.989 108.478 71.343C110.384 74.8739 112.038 79.0839 114.601 80.442C116.31 81.3473 118.921 81.6189 122.433 81.2568C118.869 76.9627 116.66 74.4083 115.806 73.5935C115.124 72.9431 119.5 75.5704 121.721 77.8616C122.096 78.2479 122.76 79.108 123.715 80.442Z" fill="#7DBC0F"/>
<path fill-rule="evenodd" clip-rule="evenodd" d="M129.065 125.637C129.065 121.547 125.807 118.23 121.783 118.23C117.766 118.23 114.51 121.545 114.51 125.637C114.507 129.734 117.766 133.048 121.79 133.048C125.809 133.051 129.065 129.737 129.065 125.637ZM104.538 121.557C104.538 125.682 105.686 129.523 107.681 132.784C106.584 130.616 105.963 128.158 105.967 125.549C105.963 116.795 112.938 109.688 121.545 109.688C130.148 109.688 137.118 116.79 137.124 125.547C137.124 134.311 130.148 141.414 121.545 141.41C118.983 141.41 116.565 140.78 114.437 139.666C117.643 141.692 121.418 142.863 125.466 142.863C137.025 142.863 146.4 133.326 146.4 121.557C146.4 109.785 137.022 100.244 125.466 100.244C113.907 100.244 104.536 109.785 104.538 121.557ZM150.81 107.401C152.904 111.547 154.097 116.251 154.097 121.236C154.097 137.995 140.755 151.579 124.289 151.582C107.825 151.582 94.4861 138.002 94.4838 121.236C94.4838 104.479 107.828 90.8963 124.285 90.8963C129.188 90.8963 133.806 92.1029 137.883 94.2363C131.755 90.3569 124.525 88.1135 116.785 88.1135C94.6657 88.1135 76.7368 106.366 76.7368 128.883C76.7368 151.397 94.6657 169.65 116.779 169.65C138.894 169.647 156.825 151.4 156.825 128.877C156.825 120.997 154.623 113.639 150.81 107.401Z" fill="#FF9F06"/>
</svg>
