<svg width="158" height="52" viewBox="0 0 158 52" fill="none" xmlns="http://www.w3.org/2000/svg">
<path fill-rule="evenodd" clip-rule="evenodd" d="M6.11132 0H151.889C154.013 0 154.784 0.219334 155.561 0.631777C156.329 1.03476 156.957 1.65733 157.363 2.41863C157.778 3.18868 158 3.95278 158 6.06029V45.9397C158 48.0472 157.778 48.8113 157.363 49.5814C156.957 50.3427 156.329 50.9652 155.561 51.3682C154.784 51.7807 154.013 52 151.889 52H6.11132C3.98606 52 3.21554 51.7807 2.439 51.3682C1.67106 50.9653 1.04303 50.3428 0.636496 49.5814C0.221782 48.8113 0 48.0472 0 45.9397V6.06029C0 3.95278 0.221181 3.18868 0.637097 2.41863C1.04338 1.6571 1.67119 1.03432 2.439 0.631181C3.21554 0.220526 3.98606 0 6.11132 0Z" fill="#EFEFEF"/>
<path d="M34.8326 23.3373C34.8014 19.9314 37.6996 18.2748 37.8323 18.1976C36.1908 15.8692 33.6462 15.5515 32.7528 15.5258C30.6153 15.3069 28.5427 16.7702 27.4541 16.7702C26.344 16.7702 24.6682 15.5468 22.861 15.5832C20.5367 15.6179 18.3614 16.9269 17.169 18.9604C14.7073 23.1064 16.5434 29.199 18.9018 32.5499C20.081 34.1921 21.4596 36.0234 23.2644 35.9594C25.0297 35.8894 25.6889 34.8652 27.8192 34.8652C29.9302 34.8652 30.5493 35.9594 32.3896 35.9181C34.2839 35.8894 35.4769 34.2693 36.6153 32.6133C37.9782 30.733 38.5264 28.8796 38.548 28.7844C38.5048 28.7695 34.8699 27.4186 34.8326 23.3373ZM31.3562 13.3212C32.3061 12.1666 32.9557 10.595 32.775 9C31.4007 9.05983 29.6829 9.92491 28.6922 11.0544C27.8174 12.0499 27.035 13.682 27.2368 15.2165C28.7805 15.3284 30.3655 14.4585 31.3562 13.3212ZM58.6572 9.52348H61.0804C61.8634 9.52348 62.5479 9.68202 63.1333 9.9985C63.7049 10.3012 64.1743 10.7653 64.4824 11.3326C64.7964 11.9051 64.9537 12.5608 64.9537 13.2985C64.9537 14.0367 64.7964 14.6924 64.4824 15.265C64.1743 15.8323 63.7049 16.2964 63.1333 16.5991C62.5479 16.9156 61.8634 17.0735 61.0798 17.0735H58.6566L58.6572 9.52348ZM61.0588 15.9452C61.9054 15.9452 62.5671 15.7119 63.0432 15.244C63.5193 14.7768 63.7577 14.1283 63.7577 13.2985C63.7577 12.4765 63.5193 11.8298 63.0432 11.3583C62.5671 10.8875 61.9054 10.6524 61.0588 10.6524H59.8418V15.9452H61.0588ZM68.4878 17.2422C67.945 17.2422 67.4581 17.1178 67.0276 16.8683C66.6034 16.6249 66.2554 16.2689 66.0225 15.8399C65.7823 15.4044 65.6622 14.9186 65.6622 14.3849C65.6622 13.8507 65.7823 13.3655 66.0225 12.9294C66.2555 12.5006 66.6035 12.1448 67.0276 11.9016C67.4581 11.6521 67.945 11.527 68.4878 11.527C69.0311 11.527 69.5181 11.6539 69.9486 11.9069C70.3722 12.1532 70.7199 12.5106 70.9537 12.9401C71.1938 13.3763 71.3139 13.8573 71.3139 14.3849C71.3139 14.9192 71.1938 15.4044 70.9537 15.8399C70.7207 16.2689 70.3728 16.6249 69.9486 16.8683C69.5181 17.1178 69.0311 17.2422 68.4878 17.2422ZM68.4878 16.1773C68.7844 16.1773 69.0594 16.1055 69.3133 15.9613C69.5673 15.8172 69.7703 15.6096 69.9222 15.3392C70.0735 15.0681 70.1497 14.7505 70.1497 14.3849C70.1497 14.0194 70.0735 13.7029 69.9216 13.4355C69.7794 13.1783 69.569 12.9651 69.3133 12.8193C69.0622 12.6758 68.7773 12.601 68.4878 12.6027C68.1918 12.6027 67.9168 12.6745 67.6628 12.8187C67.4088 12.9629 67.2059 13.1687 67.054 13.4355C66.9027 13.7029 66.8264 14.0194 66.8264 14.3849C66.8264 14.7499 66.9027 15.0681 67.0546 15.3392C67.2059 15.6096 67.4088 15.8172 67.6628 15.9613C67.9168 16.1049 68.1912 16.1773 68.4878 16.1773ZM71.6736 11.6964H72.9326L74.023 15.545H74.065L75.2821 11.6958H76.4781L77.6843 15.545H77.7264L78.8167 11.6958H80.0548L78.3298 17.0741H77.1025L75.8639 13.2141H75.8321L74.6048 17.0735H73.398L71.6736 11.6964ZM80.8059 11.6964H81.9173V12.4023H81.9701C82.1256 12.1492 82.3568 11.9404 82.6636 11.7747C82.9637 11.6113 83.3003 11.5261 83.6423 11.527C84.2985 11.527 84.7975 11.7185 85.1397 12.1014C85.4819 12.4849 85.6531 13.0071 85.6531 13.6676V17.0735H84.4889V13.8262C84.4889 13.4044 84.385 13.0951 84.1766 12.8983C83.9683 12.7008 83.6813 12.6027 83.3144 12.6027C83.0533 12.6027 82.8203 12.6745 82.6156 12.8187C82.4114 12.9629 82.2523 13.1543 82.1394 13.393C82.0265 13.6323 81.9701 13.8896 81.9701 14.1636V17.0735H80.8059V11.6964ZM86.965 9.52348H88.1298V17.0735H86.965V9.52348ZM91.9706 17.2422C91.4273 17.2422 90.9409 17.1178 90.5104 16.8683C90.086 16.625 89.7378 16.2689 89.5047 15.8399C89.2652 15.4044 89.1451 14.9186 89.1451 14.3849C89.1451 13.8507 89.2652 13.3655 89.5053 12.9294C89.7384 12.5006 90.0863 12.1448 90.5104 11.9016C90.9409 11.6521 91.4273 11.527 91.9706 11.527C92.514 11.527 93.001 11.6539 93.4314 11.9069C93.8551 12.1532 94.2027 12.5106 94.4365 12.9401C94.6767 13.3763 94.7968 13.8573 94.7968 14.3849C94.7968 14.9192 94.6767 15.4044 94.4365 15.8399C94.2036 16.2689 93.8556 16.6249 93.4314 16.8683C93.001 17.1178 92.514 17.2422 91.9706 17.2422ZM91.9706 16.1773C92.2672 16.1773 92.5422 16.1055 92.7962 15.9613C93.0502 15.8172 93.2525 15.6096 93.4044 15.3392C93.5563 15.0681 93.6326 14.7505 93.6326 14.3849C93.6326 14.0194 93.5563 13.7029 93.4044 13.4355C93.2623 13.1783 93.0519 12.9651 92.7962 12.8193C92.545 12.6758 92.2602 12.601 91.9706 12.6027C91.6746 12.6027 91.399 12.6745 91.1451 12.8187C90.8911 12.9629 90.6888 13.1687 90.5368 13.4355C90.3849 13.7029 90.3093 14.0194 90.3093 14.3849C90.3093 14.7499 90.3849 15.0681 90.5368 15.3392C90.6888 15.6096 90.8911 15.8172 91.1451 15.9613C91.399 16.1049 91.6746 16.1773 91.9706 16.1773ZM97.5581 17.2422C97.1702 17.2422 96.8244 17.1668 96.5212 17.0155C96.228 16.8733 95.982 16.65 95.8127 16.3724C95.6412 16.0877 95.5531 15.7609 95.5581 15.4289C95.5581 14.8731 95.7683 14.434 96.188 14.1103C96.6083 13.7873 97.1384 13.6257 97.7809 13.6257C98.0979 13.6257 98.3837 13.6557 98.6377 13.7155C98.8916 13.7753 99.0928 13.8399 99.2411 13.9105V13.6359C99.2411 13.3057 99.1174 13.0371 98.8706 12.8295C98.6238 12.6219 98.3062 12.5184 97.9184 12.5184C97.6428 12.5184 97.384 12.5782 97.1402 12.6978C96.9052 12.8102 96.703 12.9808 96.553 13.1932L95.7382 12.571C95.9784 12.2408 96.2882 11.9841 96.6689 11.8017C97.0501 11.6186 97.4734 11.527 97.9394 11.527C98.7223 11.527 99.3257 11.7185 99.749 12.1014C100.172 12.4849 100.384 13.0245 100.384 13.7203V17.0735H99.2411V16.4304H99.1882C99.0327 16.6625 98.8142 16.8557 98.532 17.0107C98.2498 17.165 97.9256 17.2422 97.5581 17.2422ZM97.7593 16.2826C98.0414 16.2826 98.2954 16.2162 98.5218 16.0822C98.7469 15.9488 98.9241 15.7699 99.0501 15.545C99.1766 15.3231 99.2424 15.072 99.2411 14.8169C99.0627 14.7192 98.8724 14.6448 98.6749 14.5955C98.4553 14.5389 98.2293 14.5108 98.0024 14.5118C97.5653 14.5118 97.2447 14.5973 97.0399 14.7696C96.8352 14.9419 96.7331 15.1651 96.7331 15.4397C96.7331 15.685 96.828 15.8872 97.0189 16.0457C97.2093 16.2036 97.456 16.2826 97.7593 16.2826ZM103.908 17.2422C103.421 17.2422 102.98 17.1196 102.585 16.8731C102.187 16.6239 101.864 16.2726 101.649 15.8561C101.419 15.4235 101.305 14.9329 101.305 14.3843C101.305 13.8363 101.419 13.3464 101.649 12.9138C101.864 12.4972 102.187 12.1459 102.585 11.8968C102.982 11.6501 103.441 11.5218 103.908 11.527C104.289 11.527 104.631 11.6114 104.935 11.7801C105.238 11.9488 105.467 12.1564 105.622 12.4023H105.675L105.622 11.6431V9.52348H106.787V17.0735H105.676V16.3777H105.622C105.467 16.617 105.238 16.8205 104.934 16.9892C104.62 17.1607 104.266 17.2479 103.908 17.2422ZM104.077 16.1773C104.36 16.1773 104.622 16.1037 104.866 15.956C105.109 15.8082 105.305 15.597 105.453 15.323C105.601 15.049 105.675 14.7367 105.675 14.3849C105.675 14.0332 105.601 13.7221 105.453 13.4517C105.317 13.1939 105.114 12.9772 104.866 12.8241C104.628 12.679 104.354 12.6022 104.075 12.6022C103.796 12.6022 103.522 12.679 103.284 12.8241C103.033 12.9759 102.828 13.1928 102.691 13.4517C102.543 13.7221 102.469 14.0332 102.469 14.3849C102.469 14.7361 102.543 15.049 102.691 15.323C102.839 15.5976 103.037 15.8082 103.284 15.956C103.53 16.1037 103.795 16.1773 104.077 16.1773ZM113.147 17.2422C112.603 17.2422 112.116 17.1178 111.686 16.8683C111.262 16.6249 110.914 16.2689 110.681 15.8399C110.441 15.4044 110.321 14.9186 110.321 14.3849C110.321 13.8507 110.441 13.3655 110.681 12.9294C110.914 12.5006 111.262 12.1448 111.686 11.9016C112.116 11.6521 112.603 11.527 113.147 11.527C113.689 11.527 114.176 11.6539 114.607 11.9069C115.031 12.1532 115.378 12.5106 115.612 12.9401C115.852 13.3763 115.972 13.8573 115.972 14.3849C115.972 14.9192 115.852 15.4044 115.612 15.8399C115.379 16.2689 115.031 16.6249 114.607 16.8683C114.176 17.1178 113.689 17.2422 113.147 17.2422ZM113.147 16.1773C113.443 16.1773 113.718 16.1055 113.972 15.9613C114.226 15.8172 114.429 15.6096 114.58 15.3392C114.732 15.0681 114.808 14.7505 114.808 14.3849C114.808 14.0194 114.732 13.7029 114.58 13.4355C114.438 13.1783 114.227 12.9651 113.972 12.8193C113.721 12.6759 113.436 12.6011 113.147 12.6027C112.85 12.6027 112.575 12.6745 112.321 12.8187C112.067 12.9629 111.865 13.1687 111.712 13.4355C111.561 13.7029 111.485 14.0194 111.485 14.3849C111.485 14.7499 111.561 15.0681 111.713 15.3392C111.864 15.6096 112.067 15.8172 112.321 15.9613C112.575 16.1049 112.85 16.1773 113.147 16.1773ZM116.935 11.6964H118.046V12.4023H118.099C118.254 12.1492 118.486 11.9404 118.792 11.7747C119.092 11.6113 119.429 11.5261 119.771 11.527C120.427 11.527 120.926 11.7185 121.269 12.1014C121.611 12.4849 121.782 13.0071 121.782 13.6676V17.0735H120.618V13.8262C120.618 13.4044 120.514 13.0951 120.305 12.8983C120.098 12.7008 119.81 12.6027 119.443 12.6027C119.182 12.6027 118.949 12.6745 118.745 12.8187C118.54 12.9629 118.381 13.1543 118.268 13.393C118.155 13.6323 118.099 13.8896 118.099 14.1636V17.0735H116.935V11.6964ZM127.782 17.1585C127.542 17.1585 127.317 17.1196 127.105 17.0418C126.893 16.9646 126.721 16.8623 126.586 16.7367C126.283 16.434 126.131 16.023 126.131 15.5025V12.7188H125.189V11.6958H126.132V10.1774H127.296V11.6958H128.607V12.7188H127.296V15.2494C127.296 15.5378 127.352 15.7418 127.465 15.8608C127.571 16.0014 127.754 16.072 128.015 16.072C128.135 16.072 128.241 16.0559 128.333 16.0242C128.424 15.9931 128.523 15.9416 128.629 15.8716V16.9999C128.396 17.1052 128.114 17.1585 127.782 17.1585ZM129.772 9.52348H130.936V11.5797L130.883 12.4023H130.936C131.091 12.1492 131.322 11.9404 131.629 11.7747C131.932 11.6104 132.273 11.5252 132.618 11.527C133.274 11.527 133.776 11.7185 134.121 12.1014C134.467 12.4849 134.64 13.0071 134.64 13.6676V17.0735H133.476V13.8262C133.476 13.4181 133.368 13.1124 133.153 12.9084C132.938 12.705 132.657 12.6027 132.311 12.6027C132.051 12.6027 131.816 12.6763 131.608 12.8241C131.397 12.9748 131.227 13.176 131.115 13.4092C130.995 13.6521 130.936 13.9105 130.936 14.1845V17.0741H129.772V9.52348ZM138.428 17.2422C137.899 17.2422 137.425 17.1196 137.005 16.8731C136.589 16.6311 136.248 16.2791 136.021 15.8561C135.784 15.4235 135.667 14.9365 135.667 14.3951C135.663 13.8981 135.78 13.4077 136.01 12.9665C136.23 12.5377 136.56 12.1753 136.968 11.9171C137.377 11.6575 137.843 11.527 138.365 11.527C138.908 11.527 139.379 11.6467 139.778 11.886C140.176 12.1247 140.48 12.4514 140.688 12.8666C140.896 13.2811 141 13.7484 141 14.2689C141 14.367 140.989 14.4902 140.968 14.638H136.83C136.872 15.1369 137.051 15.5216 137.364 15.7926C137.667 16.0588 138.057 16.2034 138.46 16.1983C138.792 16.1983 139.079 16.1229 139.322 15.9715C139.566 15.8208 139.762 15.615 139.91 15.3553L140.894 15.819C140.656 16.245 140.314 16.6041 139.899 16.8629C139.49 17.116 139 17.2422 138.428 17.2422ZM139.815 13.752C139.798 13.5529 139.736 13.3601 139.635 13.1878C139.519 12.9917 139.353 12.8298 139.153 12.7188C138.938 12.592 138.675 12.5291 138.365 12.5291C137.991 12.5291 137.675 12.6398 137.418 12.8612C137.16 13.0825 136.982 13.3793 136.884 13.7526L139.815 13.752ZM61.8045 24.8766H64.6625L69.6231 38.0317H66.8757L65.7691 34.8897H60.7166L59.6106 38.0317H56.8631L61.8045 24.8766ZM64.9579 32.6121L63.7961 29.3043L63.317 27.7249H63.1693L62.6896 29.3043L61.5097 32.6115L64.9579 32.6121ZM70.3437 28.6618H72.6114V29.8009H72.7591C73.0173 29.3965 73.3926 29.0567 73.8837 28.7809C74.376 28.5057 74.941 28.3681 75.5805 28.3681C76.4289 28.3681 77.1998 28.5786 77.8945 29.0016C78.5892 29.424 79.1331 30.0151 79.5264 30.7743C79.9197 31.534 80.1166 32.3914 80.1166 33.3468C80.1166 34.3142 79.9197 35.1751 79.5264 35.9283C79.1331 36.6815 78.5892 37.2696 77.8945 37.6919C77.1998 38.1143 76.4289 38.3261 75.5805 38.3261C74.941 38.3261 74.3724 38.1909 73.8753 37.9217C73.377 37.6524 73.0047 37.315 72.7591 36.9106H72.6114L72.7591 38.234V42H70.3437V28.6618ZM75.1566 36.1024C75.6111 36.1024 76.035 35.9863 76.4289 35.7536C76.8242 35.5187 77.1489 35.1823 77.3691 34.7796C77.6027 34.3632 77.7192 33.8858 77.7192 33.3468C77.7192 32.8077 77.6027 32.3297 77.3691 31.9133C77.1503 31.5121 76.8251 31.1785 76.4289 30.949C76.0427 30.7243 75.6031 30.6069 75.156 30.6091C74.7135 30.6091 74.2956 30.7228 73.9023 30.949C73.5061 31.1785 73.1808 31.5121 72.9621 31.9133C72.7285 32.3297 72.6114 32.8077 72.6114 33.3468C72.6114 33.8852 72.7285 34.3638 72.9621 34.7796C73.1822 35.1823 73.507 35.5187 73.9023 35.7536C74.2805 35.982 74.7143 36.1026 75.1566 36.1024ZM80.9662 28.6618H83.2346V29.8009H83.3817C83.6399 29.3965 84.0151 29.0567 84.5069 28.7809C84.998 28.5057 85.5636 28.3681 86.203 28.3681C87.0514 28.3681 87.8224 28.5786 88.517 29.0016C89.2117 29.424 89.7557 30.0151 90.149 30.7743C90.5423 31.534 90.7392 32.3914 90.7392 33.3468C90.7392 34.3142 90.5423 35.1751 90.149 35.9283C89.7557 36.6815 89.2117 37.2696 88.517 37.6919C87.8224 38.1143 87.0514 38.3261 86.203 38.3261C85.5636 38.3261 84.995 38.1909 84.4979 37.9217C83.9995 37.6524 83.6273 37.315 83.3817 36.9106H83.2346L83.3817 38.234V42H80.9662V28.6618ZM85.7792 36.1024C86.2337 36.1024 86.6576 35.9863 87.0514 35.7536C87.4468 35.5187 87.7715 35.1823 87.9917 34.7796C88.2252 34.3632 88.3417 33.8858 88.3417 33.3468C88.3417 32.8077 88.2252 32.3297 87.9917 31.9133C87.7729 31.5121 87.4476 31.1785 87.0514 30.949C86.6653 30.7243 86.2257 30.6069 85.7785 30.6091C85.3366 30.6091 84.9181 30.7228 84.5249 30.949C84.1287 31.1785 83.8034 31.5121 83.5846 31.9133C83.3511 32.3297 83.2346 32.8077 83.2346 33.3468C83.2346 33.8852 83.3511 34.3638 83.5846 34.7796C83.8048 35.1823 84.1295 35.5187 84.5249 35.7536C84.9031 35.982 85.3369 36.1026 85.7792 36.1024ZM99.169 38.3255C98.0132 38.3255 96.9931 38.0012 96.1081 37.3521C95.2231 36.703 94.6023 35.7847 94.2456 34.5959L96.5872 33.6776C96.7722 34.3758 97.0856 34.9328 97.5281 35.3491C97.9706 35.7655 98.5236 35.9737 99.1876 35.9737C99.7406 35.9737 100.214 35.8361 100.607 35.5609C101.001 35.2851 101.197 34.9022 101.197 34.4123C101.197 33.9223 101.01 33.5209 100.635 33.2086C100.26 32.8963 99.5929 32.5625 98.634 32.2077L97.8235 31.9133C96.9745 31.6196 96.2498 31.1697 95.647 30.5631C95.0448 29.957 94.7434 29.1943 94.7434 28.2759C94.7434 27.5897 94.9217 26.9651 95.2783 26.4016C95.635 25.838 96.1387 25.3941 96.7902 25.0699C97.4416 24.745 98.1795 24.5829 99.0033 24.5829C100.196 24.5829 101.136 24.8617 101.824 25.4186C102.513 25.9762 102.986 26.6283 103.244 27.3749L101.05 28.2939C100.917 27.893 100.67 27.539 100.34 27.2744C100.002 26.9992 99.5683 26.861 99.0399 26.861C98.4996 26.861 98.0535 26.9867 97.7034 27.2379C97.3528 27.4892 97.1774 27.8165 97.1774 28.2209C97.1774 28.6127 97.3438 28.9466 97.6758 29.2218C98.0072 29.4976 98.5542 29.7638 99.3167 30.021L100.147 30.2962C101.29 30.6887 102.165 31.2062 102.774 31.8493C103.382 32.4925 103.687 33.3342 103.687 34.3758C103.687 35.2331 103.466 35.9588 103.023 36.5528C102.586 37.1425 101.996 37.6028 101.317 37.8846C100.639 38.1753 99.9077 38.3253 99.169 38.3255ZM108.593 38.1789C108.154 38.1836 107.717 38.1121 107.302 37.9677C106.909 37.8265 106.59 37.6339 106.343 37.3886C105.766 36.8376 105.477 36.0539 105.477 35.0375V30.7192H103.836V28.6612H105.477V26.0157H107.892V28.6618H110.197V30.7198H107.892V34.5965C107.892 35.074 107.997 35.4162 108.206 35.6249C108.378 35.8206 108.673 35.9187 109.091 35.9187C109.325 35.9187 109.518 35.8888 109.672 35.8272C109.879 35.7383 110.08 35.6339 110.271 35.5149V37.866C109.737 38.0755 109.167 38.1817 108.593 38.1789ZM115.62 38.3255C114.649 38.3255 113.783 38.1083 113.02 37.6734C112.274 37.254 111.658 36.6373 111.241 35.8912C110.816 35.138 110.605 34.2896 110.605 33.3468C110.605 32.4159 110.816 31.5705 111.241 30.8113C111.656 30.0612 112.272 29.4408 113.02 29.0196C113.783 28.5852 114.649 28.3675 115.62 28.3675C116.579 28.3675 117.439 28.5852 118.202 29.0196C118.95 29.4408 119.566 30.0612 119.981 30.8113C120.405 31.5711 120.617 32.4159 120.617 33.3468C120.617 34.2896 120.405 35.138 119.981 35.8912C119.564 36.6375 118.948 37.2545 118.202 37.674C117.439 38.1083 116.579 38.3255 115.62 38.3255ZM115.62 36.1024C116.072 36.1065 116.517 35.9926 116.911 35.7721C117.308 35.5478 117.634 35.2167 117.851 34.8167C118.085 34.4003 118.202 33.9103 118.202 33.3468C118.202 32.7952 118.085 32.3118 117.851 31.8954C117.634 31.4954 117.308 31.1643 116.911 30.94C116.517 30.7193 116.072 30.6052 115.62 30.6091C115.168 30.6052 114.723 30.7193 114.329 30.94C113.936 31.1601 113.619 31.4784 113.38 31.8954C113.14 32.3118 113.02 32.7952 113.02 33.3468C113.02 33.8978 113.14 34.3848 113.38 34.8071C113.619 35.2301 113.936 35.5514 114.329 35.7721C114.723 35.9926 115.168 36.1065 115.62 36.1024ZM121.522 28.6618H123.79V29.911H123.938C124.172 29.4701 124.534 29.1057 125.026 28.8179C125.517 28.5301 126.078 28.3808 126.648 28.386C127.079 28.386 127.472 28.4536 127.829 28.5882V30.995C127.554 30.8906 127.274 30.8018 126.989 30.7288C126.751 30.6722 126.506 30.6443 126.261 30.6456C125.548 30.6456 124.982 30.9029 124.565 31.4174C124.147 31.9319 123.938 32.581 123.938 33.3653V38.0317H121.523L121.522 28.6618ZM132.495 38.3255C131.561 38.3255 130.719 38.1113 129.969 37.6824C129.23 37.2642 128.62 36.6508 128.208 35.9097C127.784 35.1559 127.572 34.3082 127.572 33.3653C127.566 32.4957 127.781 31.6389 128.199 30.8754C128.604 30.1239 129.202 29.4931 129.932 29.0477C130.67 28.5942 131.493 28.3675 132.403 28.3675C133.374 28.3675 134.211 28.5757 134.911 28.992C135.598 29.3943 136.153 29.9883 136.506 30.7007C136.869 31.4234 137.05 32.2262 137.05 33.1081C137.05 33.3892 137.031 33.6585 136.994 33.9157H129.932C130.055 34.6635 130.353 35.2301 130.827 35.616C131.3 36.0013 131.868 36.1945 132.532 36.1945C133.085 36.1945 133.561 36.0748 133.961 35.8361C134.356 35.602 134.683 35.2697 134.911 34.8717L136.866 35.8272C135.907 37.4927 134.449 38.3255 132.495 38.3255ZM134.726 32.2077C134.702 31.9133 134.594 31.6226 134.404 31.3348C134.213 31.0471 133.949 30.8084 133.611 30.6181C133.273 30.4285 132.876 30.3333 132.421 30.3333C131.844 30.3333 131.349 30.5021 130.937 30.8389C130.525 31.1757 130.227 31.6316 130.042 32.2077H134.726Z" fill="#1E1147"/>
</svg>
