<svg width="158" height="52" viewBox="0 0 158 52" fill="none" xmlns="http://www.w3.org/2000/svg">
<path fill-rule="evenodd" clip-rule="evenodd" d="M6.11132 0H151.889C154.013 0 154.784 0.219334 155.561 0.631777C156.329 1.03476 156.957 1.65733 157.363 2.41863C157.778 3.18868 158 3.95278 158 6.06029V45.9397C158 48.0472 157.778 48.8113 157.363 49.5814C156.957 50.3427 156.329 50.9652 155.561 51.3682C154.784 51.7807 154.013 52 151.889 52H6.11132C3.98606 52 3.21554 51.7807 2.439 51.3682C1.67106 50.9653 1.04303 50.3428 0.636496 49.5814C0.222383 48.8113 0 48.0472 0 45.9397V6.06029C0 3.95278 0.221181 3.18868 0.637097 2.41863C1.04338 1.6571 1.67119 1.03432 2.439 0.631181C3.21554 0.220526 3.98606 0 6.11132 0Z" fill="#EFEFEF"/>
<path d="M21.5205 37.2973C22.0849 37.3941 22.7517 37.275 23.4647 36.9044L35.9663 30.4054L32.3297 26.9102L21.5205 37.2973ZM20.4883 15.0037C20.1785 15.4411 20 16.0434 20 16.7847V34.8401C20 35.562 20.169 36.152 20.4631 36.586L31.4041 25.7819L20.4883 15.0037ZM36.7266 21.1883L24.1872 14.6864C23.4904 14.3251 22.8374 14.2014 22.2808 14.2841L33.0948 24.6782L36.7266 21.1883ZM37.6564 29.8882L41.2883 28.0409C43.3169 27.0105 43.3157 25.3257 41.2859 24.297L37.6343 22.4456L33.6855 26.1561L37.6564 29.8882ZM63.5944 17.7318C62.8988 17.7375 62.2139 17.5629 61.6096 17.2257C61.0117 16.8954 60.5143 16.4155 60.1681 15.8352C59.8128 15.2459 59.6349 14.5896 59.6349 13.866C59.6349 13.1429 59.8128 12.4861 60.1681 11.8973C60.5144 11.3172 61.0118 10.8376 61.6096 10.5074C62.2138 10.1698 62.8987 9.99474 63.5944 10.0001C64.1648 10.0001 64.6968 10.0998 65.1893 10.3004C65.6817 10.4998 66.0939 10.7789 66.4246 11.1372L65.6008 11.9436C65.3568 11.6763 65.056 11.4646 64.7196 11.3231C64.3604 11.175 63.9739 11.1011 63.5842 11.1062C63.0984 11.1062 62.6442 11.2199 62.2219 11.4475C61.7996 11.6747 61.4491 12.0108 61.2082 12.4192C60.9547 12.8397 60.8283 13.3217 60.8283 13.866C60.8283 14.4108 60.9547 14.8928 61.2082 15.3133C61.4491 15.7217 61.7996 16.0578 62.2219 16.285C62.642 16.5117 63.1146 16.6291 63.5944 16.6258C64.0449 16.6258 64.4218 16.5607 64.7243 16.4293C65.024 16.3004 65.299 16.1223 65.5373 15.9027C65.6925 15.7508 65.8249 15.5614 65.9334 15.3338C66.045 15.0984 66.1182 14.8473 66.1502 14.5896H63.5842V13.5563H67.2694C67.3047 13.7493 67.3221 13.9492 67.3221 14.1557C67.3221 14.6242 67.2484 15.074 67.1004 15.5045C66.9576 15.9272 66.7155 16.3113 66.3935 16.6258C65.6817 17.3635 64.7489 17.7318 63.5944 17.7318ZM70.9018 17.7318C70.374 17.7318 69.9007 17.6116 69.4819 17.37C69.0667 17.1328 68.7266 16.7877 68.4994 16.373C68.2639 15.949 68.1459 15.4716 68.1459 14.9409C68.1421 14.4537 68.2599 13.973 68.4892 13.5405C68.7082 13.1202 69.0381 12.7651 69.4448 12.5119C69.8527 12.2573 70.3177 12.1295 70.8383 12.1295C71.3805 12.1295 71.8508 12.2468 72.248 12.4814C72.6458 12.7154 72.949 13.0356 73.1562 13.4425C73.3641 13.849 73.4678 14.307 73.4678 14.8172C73.4678 14.9133 73.4576 15.0342 73.436 15.179H69.3076C69.3495 15.6681 69.5274 16.0452 69.8408 16.3108C70.142 16.5716 70.5315 16.7133 70.9335 16.7084C71.2643 16.7084 71.5512 16.6346 71.7945 16.4862C72.0371 16.3384 72.2324 16.1367 72.3804 15.8822L73.3623 16.3366C73.1249 16.7543 72.7834 17.1063 72.3696 17.36C71.9616 17.6081 71.4721 17.7318 70.9018 17.7318ZM72.2857 14.3105C72.2687 14.1153 72.2073 13.9264 72.106 13.7575C71.9904 13.5652 71.8245 13.4065 71.6255 13.2977C71.4104 13.1734 71.148 13.1118 70.8383 13.1118C70.4656 13.1118 70.1505 13.2203 69.8935 13.4373C69.6365 13.6543 69.4585 13.9451 69.3603 14.3111H72.2851L72.2857 14.3105ZM76.5724 17.6491C76.3327 17.6491 76.1081 17.6116 75.8966 17.5353C75.6857 17.4597 75.5132 17.3594 75.379 17.2362C75.0764 16.9395 74.9248 16.5366 74.9248 16.0264V13.2977H73.9854V12.2949H74.9248V10.8065H76.0871V12.2949H77.3962V13.2977H76.0865V15.7783C76.0865 16.061 76.1428 16.261 76.2555 16.3777C76.3615 16.5155 76.5442 16.5847 76.8048 16.5847C76.9247 16.5847 77.0301 16.5689 77.1218 16.5378C77.2128 16.5073 77.3117 16.4569 77.4171 16.3883V17.4943C77.1847 17.5975 76.9031 17.6491 76.5724 17.6491ZM81.6409 11.5302C81.4228 11.5302 81.2383 11.4563 81.0867 11.3079C81.013 11.2374 80.9549 11.153 80.9158 11.0597C80.8768 10.9664 80.8577 10.8662 80.8596 10.7654C80.8596 10.5514 80.9351 10.3708 81.0867 10.2224C81.2383 10.0746 81.4228 10.0001 81.6409 10.0001C81.8596 10.0001 82.0441 10.0746 82.1957 10.223C82.3466 10.3708 82.4227 10.5514 82.4227 10.7654C82.4227 10.9789 82.3466 11.1595 82.1951 11.3079C82.1231 11.38 82.0368 11.4369 81.9415 11.4752C81.8462 11.5134 81.7439 11.5321 81.6409 11.5302ZM81.0597 12.2949H82.222V17.567H81.0597V12.2949ZM85.8227 17.6491C85.583 17.6491 85.3578 17.6116 85.1469 17.5353C84.9354 17.4597 84.7635 17.3594 84.6293 17.2362C84.3267 16.9395 84.1751 16.5366 84.1751 16.0264V13.2977H83.2357V12.2949H84.1751V10.8065H85.3374V12.2949H86.6465V13.2977H85.3368V15.7783C85.3368 16.061 85.3931 16.261 85.5058 16.3777C85.6112 16.5155 85.7945 16.5847 86.0551 16.5847C86.175 16.5847 86.2804 16.5689 86.3715 16.5378C86.4631 16.5073 86.562 16.4569 86.6674 16.3883V17.4943C86.435 17.5975 86.1534 17.6491 85.8227 17.6491ZM92.7496 17.7318C92.2074 17.7318 91.7222 17.6098 91.2926 17.3653C90.8691 17.1268 90.5217 16.7777 90.2891 16.3572C90.05 15.9302 89.9302 15.454 89.9302 14.9309C89.9302 14.4072 90.05 13.9316 90.2897 13.5041C90.5222 13.0838 90.8694 12.735 91.2926 12.4966C91.7222 12.2521 92.2074 12.1295 92.7496 12.1295C93.2918 12.1295 93.7777 12.2538 94.2073 12.5019C94.63 12.7433 94.9769 13.0936 95.2102 13.5147C95.4498 13.9422 95.5696 14.4137 95.5696 14.9309C95.5696 15.4546 95.4498 15.9302 95.2102 16.3572C94.9777 16.7777 94.6305 17.1267 94.2073 17.3653C93.7777 17.6098 93.2918 17.7318 92.7496 17.7318ZM92.7496 16.6879C93.0456 16.6879 93.32 16.6175 93.5734 16.4762C93.8268 16.3349 94.0287 16.1314 94.1803 15.8663C94.3319 15.6007 94.408 15.2893 94.408 14.9309C94.408 14.5726 94.3319 14.2624 94.1803 14.0003C94.0385 13.7482 93.8285 13.5392 93.5734 13.3962C93.3228 13.2555 93.0386 13.1823 92.7496 13.1839C92.4543 13.1839 92.1793 13.2543 91.9258 13.3956C91.6724 13.537 91.4705 13.7387 91.3189 14.0003C91.1674 14.2624 91.0919 14.5726 91.0919 14.9309C91.0919 15.2887 91.1674 15.6007 91.3189 15.8663C91.4705 16.1314 91.6724 16.3349 91.9258 16.4762C92.1793 16.617 92.4543 16.6879 92.7496 16.6879ZM96.53 12.2955H97.6384V12.9875H97.6917C97.8463 12.7394 98.0769 12.5347 98.3831 12.3723C98.6825 12.2121 99.0184 12.1286 99.3596 12.1295C100.014 12.1295 100.513 12.3172 100.854 12.6925C101.196 13.0684 101.367 13.5804 101.367 14.2278V17.5664H100.204V14.3832C100.204 13.9698 100.101 13.6666 99.8928 13.4736C99.6856 13.2801 99.3986 13.1839 99.0325 13.1839C98.7725 13.1839 98.5401 13.2543 98.3358 13.3956C98.1321 13.537 97.9733 13.7246 97.8607 13.9586C97.748 14.1932 97.6917 14.4454 97.6917 14.714V17.5664H96.53V12.2949V12.2955ZM59.4575 25.2148H64.0947C64.9286 25.2148 65.6889 25.3861 66.3761 25.7285C67.0627 26.0704 67.6025 26.5507 67.9949 27.1688C68.3873 27.7875 68.5838 28.493 68.5838 29.2853C68.5838 30.0776 68.3873 30.786 67.9949 31.4106C67.6048 32.0328 67.0439 32.5351 66.3761 32.8603C65.6889 33.2022 64.9286 33.3734 64.0947 33.3734H61.9409V38.1101H59.4569V25.2154L59.4575 25.2148ZM64.1678 31.0681C64.7813 31.0681 65.2629 30.8939 65.6122 30.5462C65.9621 30.1978 66.1365 29.7779 66.1365 29.2853C66.1365 28.7927 65.9621 28.3757 65.6122 28.0333C65.2629 27.6914 64.7813 27.5201 64.1684 27.5201H61.9409V31.0681H64.1672H64.1678ZM69.6892 25.2154H72.0994V38.1101H69.6892V25.2154ZM76.4987 38.3987C75.5054 38.3987 74.6894 38.1131 74.0519 37.5424C73.4139 36.9724 73.0951 36.2253 73.0951 35.3005C73.0951 34.6882 73.2605 34.1481 73.5918 33.6795C73.9231 33.2116 74.3766 32.8515 74.953 32.5993C75.5299 32.3471 76.1674 32.2211 76.8666 32.2211C77.8359 32.2211 78.6639 32.3589 79.3505 32.6351V32.2386C79.3505 31.7343 79.1576 31.3261 78.7711 31.0142C78.3847 30.7022 77.8665 30.5462 77.2164 30.5462C76.7749 30.5462 76.3483 30.6447 75.9373 30.8429C75.543 31.0284 75.1946 31.2958 74.9164 31.6264L73.3707 30.4377C73.8217 29.8638 74.4091 29.4064 75.0818 29.1053C75.769 28.7927 76.5173 28.6367 77.3267 28.6367C78.7616 28.6367 79.8537 28.961 80.6014 29.6096C81.3503 30.2576 81.7242 31.2065 81.7242 32.455V38.1101H79.3505V37.1736H79.2031C78.9215 37.5336 78.5501 37.828 78.0899 38.0562C77.6304 38.2843 77.0996 38.3981 76.4987 38.3981V38.3987ZM77.0691 36.5613C77.7682 36.5613 78.323 36.342 78.7346 35.9039C79.145 35.4658 79.3505 34.9521 79.3505 34.3639C78.7353 34.0781 78.0627 33.9304 77.3818 33.9317C76.1308 33.9317 75.5054 34.388 75.5054 35.3005C75.5054 35.6729 75.6402 35.9761 75.9098 36.21C76.1794 36.4446 76.5664 36.5613 77.0691 36.5613ZM85.9389 37.6779L81.9836 28.9252H84.7245L87.1533 34.6343H87.3007L89.6372 28.9252H92.3237L86.5278 42H83.9337L85.9389 37.6779ZM100.202 38.3981C99.0487 38.3981 98.0308 38.0802 97.1477 37.4439C96.264 36.8076 95.6451 35.9074 95.2893 34.7422L97.6258 33.842C97.8097 34.5264 98.1231 35.0723 98.564 35.4805C99.0056 35.8887 99.5579 36.0928 100.22 36.0928C100.772 36.0928 101.244 35.9579 101.637 35.6881C102.029 35.4178 102.226 35.0424 102.226 34.5621C102.226 34.0818 102.038 33.6883 101.664 33.3822C101.291 33.0761 100.625 32.7489 99.6682 32.4011L98.8588 32.1126C98.0122 31.8246 97.2891 31.3836 96.6876 30.789C96.0867 30.1949 95.7859 29.4472 95.7859 28.547C95.7859 27.8743 95.9639 27.2621 96.3191 26.7097C96.675 26.1572 97.1783 25.7221 97.8283 25.4042C98.4783 25.0858 99.2141 24.9269 100.036 24.9269C101.226 24.9269 102.164 25.2002 102.851 25.7461C103.538 26.2927 104.011 26.9319 104.268 27.6638L102.078 28.5646C101.946 28.1716 101.7 27.8246 101.37 27.5653C101.033 27.2955 100.6 27.16 100.073 27.16C99.5334 27.16 99.0888 27.2832 98.739 27.5295C98.3897 27.7758 98.2147 28.0966 98.2147 28.493C98.2147 28.8772 98.3801 29.2044 98.7114 29.4742C99.0427 29.7445 99.5885 30.0055 100.349 30.2576L101.177 30.5274C102.317 30.9121 103.192 31.4194 103.798 32.0498C104.406 32.6802 104.709 33.5054 104.709 34.5264C104.709 35.3667 104.489 36.0781 104.047 36.6604C103.611 37.2383 103.023 37.6895 102.346 37.9659C101.668 38.2508 100.939 38.3979 100.202 38.3981ZM109.605 38.2544C109.167 38.259 108.731 38.1889 108.317 38.0474C107.925 37.909 107.606 37.7201 107.361 37.4797C106.784 36.9396 106.496 36.1713 106.496 35.175V30.942H104.858V28.9247H106.496V26.3314H108.906V28.9252H111.206V30.9426H108.906V34.7428C108.906 35.2107 109.01 35.5462 109.219 35.7509C109.391 35.9426 109.685 36.0388 110.102 36.0388C110.335 36.0388 110.528 36.0095 110.682 35.9491C110.889 35.8619 111.088 35.7596 111.28 35.643V37.9477C110.746 38.1531 110.178 38.2571 109.605 38.2544ZM116.617 38.3981C115.648 38.3981 114.784 38.1852 114.023 37.7588C113.278 37.3479 112.663 36.7432 112.247 36.0118C111.824 35.2735 111.612 34.4419 111.612 33.5177C111.612 32.6052 111.824 31.7765 112.247 31.0323C112.661 30.2969 113.276 29.6887 114.023 29.2759C114.784 28.8502 115.648 28.6367 116.617 28.6367C117.574 28.6367 118.432 28.8502 119.193 29.2759C119.94 29.6888 120.555 30.297 120.968 31.0323C121.391 31.7771 121.603 32.6052 121.603 33.5177C121.603 34.4419 121.391 35.2735 120.968 36.0118C120.552 36.7435 119.938 37.3483 119.193 37.7594C118.432 38.1852 117.574 38.3987 116.616 38.3987L116.617 38.3981ZM116.617 36.2188C117.068 36.2229 117.512 36.1113 117.905 35.8951C118.301 35.6752 118.627 35.3507 118.843 34.9586C119.076 34.5504 119.193 34.0701 119.193 33.5177C119.193 32.977 119.076 32.5031 118.843 32.095C118.627 31.7028 118.301 31.3783 117.905 31.1584C117.512 30.9421 117.068 30.8303 116.617 30.8341C116.166 30.8303 115.722 30.9421 115.329 31.1584C114.937 31.3742 114.621 31.6862 114.382 32.095C114.142 32.5031 114.022 32.977 114.022 33.5177C114.022 34.0578 114.142 34.5352 114.382 34.9492C114.621 35.3638 114.937 35.6787 115.329 35.8951C115.722 36.1113 116.166 36.2229 116.617 36.2188ZM122.506 28.9252H124.769V30.1497H124.917C125.15 29.7175 125.511 29.3604 126.002 29.0783C126.493 28.7961 127.053 28.6497 127.622 28.6549C128.051 28.6549 128.443 28.7212 128.799 28.8531V31.2124C128.525 31.1101 128.246 31.023 127.962 30.9514C127.724 30.896 127.48 30.8686 127.235 30.8699C126.523 30.8699 125.959 31.1221 125.542 31.6264C125.125 32.1307 124.917 32.767 124.917 33.5359V38.1101H122.506V28.9258V28.9252ZM133.456 38.3981C132.524 38.3981 131.683 38.1881 130.935 37.7676C130.197 37.3577 129.589 36.7564 129.177 36.03C128.754 35.2911 128.542 34.4601 128.542 33.5359C128.536 32.6835 128.752 31.8435 129.168 31.0951C129.573 30.3583 130.169 29.74 130.898 29.3035C131.634 28.859 132.456 28.6367 133.363 28.6367C134.333 28.6367 135.167 28.8408 135.866 29.249C136.552 29.6434 137.105 30.2256 137.457 30.9238C137.819 31.6323 138 32.4193 138 33.2837C138 33.5593 137.982 33.8232 137.945 34.0754H130.898C131.021 34.8084 131.318 35.3638 131.791 35.7421C132.263 36.1197 132.83 36.3092 133.492 36.3092C134.044 36.3092 134.52 36.1919 134.918 35.9579C135.312 35.7284 135.639 35.4026 135.866 35.0125L137.816 35.9491C136.859 37.5817 135.406 38.3981 133.456 38.3981ZM135.682 32.4011C135.657 32.1126 135.55 31.8276 135.36 31.5455C135.17 31.2634 134.906 31.0294 134.569 30.8429C134.232 30.657 133.836 30.5638 133.382 30.5638C132.806 30.5638 132.311 30.7291 131.901 31.0593C131.49 31.3895 131.192 31.8363 131.008 32.4011H135.681H135.682Z" fill="#1E1147"/>
</svg>
