<svg width="25" height="33" viewBox="0 0 25 33" fill="none" xmlns="http://www.w3.org/2000/svg">
<path fill-rule="evenodd" clip-rule="evenodd" d="M16.1013 6.83097C15.8591 5.18648 16.1416 3.7739 16.9487 2.59324C17.7558 1.41258 20.3989 0.548164 24.8782 0C23.8849 0.632497 23.1181 1.49691 22.578 2.59324C21.7678 4.23773 21.0648 6.19847 19.9752 6.83097C19.2488 7.25263 18.1391 7.37913 16.646 7.21047C18.161 5.21057 19.1001 4.02087 19.4633 3.64138C19.7532 3.33847 17.8928 4.5621 16.9487 5.62922C16.7895 5.80911 16.5071 6.2097 16.1013 6.83097Z" fill="#7DBC0F"/>
<path fill-rule="evenodd" clip-rule="evenodd" d="M14.5931 4.90066C14.77 3.80433 14.5636 2.86261 13.9738 2.07551C13.384 1.2884 11.4525 0.712122 8.17916 0.34668C8.90504 0.768344 9.46534 1.34462 9.86004 2.07551C10.4521 3.17183 10.9659 4.47899 11.7621 4.90066C12.2929 5.18177 13.1038 5.2661 14.1949 5.15366C13.0878 3.82039 12.4016 3.02726 12.1362 2.77426C11.9243 2.57233 13.2838 3.38808 13.9738 4.0995C14.0901 4.21942 14.2965 4.48648 14.5931 4.90066Z" fill="#7DBC0F"/>
<path fill-rule="evenodd" clip-rule="evenodd" d="M16.2549 18.9339C16.2549 17.6641 15.2427 16.6341 13.9927 16.6341C12.7449 16.6341 11.7338 17.6634 11.7338 18.9339C11.7328 20.206 12.7449 21.235 13.9949 21.235C15.2435 21.236 16.2549 20.207 16.2549 18.9339ZM8.63611 17.6671C8.63611 18.948 8.99266 20.1404 9.61224 21.1529C9.27148 20.4799 9.07878 19.7166 9.07976 18.9065C9.07878 16.1887 11.2455 13.9818 13.9189 13.9818C16.5915 13.9818 18.7564 16.1869 18.7584 18.9058C18.7584 21.6272 16.5915 23.8326 13.9189 23.8313C13.1229 23.8313 12.3718 23.6357 11.7108 23.2897C12.7069 23.9187 13.8795 24.2823 15.1369 24.2823C18.7275 24.2823 21.6396 21.3211 21.6396 17.6671C21.6396 14.0121 18.7265 11.0497 15.1369 11.0497C11.5462 11.0497 8.63537 14.0121 8.63611 17.6671ZM23.0096 13.2716C23.6602 14.559 24.0306 16.0197 24.0306 17.5674C24.0306 22.7709 19.8863 26.9886 14.7715 26.9896C9.65715 26.9896 5.51354 22.7732 5.5128 17.5674C5.5128 12.3647 9.65789 8.14723 14.7702 8.14723C16.2931 8.14723 17.7275 8.52187 18.994 9.18427C17.0906 7.97975 14.8447 7.2832 12.4402 7.2832C5.56931 7.2832 0 12.9505 0 19.9418C0 26.9321 5.5693 32.5994 12.4385 32.5994C19.3081 32.5984 24.8782 26.9329 24.8782 19.9398C24.8782 17.4931 24.1942 15.2086 23.0096 13.2716Z" fill="#FF9F06"/>
</svg>
