<svg width="138" height="45" viewBox="0 0 138 45" fill="none" xmlns="http://www.w3.org/2000/svg">
<path fill-rule="evenodd" clip-rule="evenodd" d="M22.0846 9.42954C21.7525 7.15947 22.1399 5.20953 23.2469 3.57973C24.3539 1.94994 27.9793 0.756692 34.1232 0C32.7607 0.873106 31.7091 2.06635 30.9683 3.57973C29.857 5.84981 28.8926 8.55644 27.3982 9.42954C26.4019 10.0116 24.8797 10.1862 22.8318 9.95341C24.9098 7.19273 26.1979 5.55046 26.696 5.0266C27.0936 4.60846 24.5419 6.29757 23.2469 7.77064C23.0286 8.01897 22.6412 8.57193 22.0846 9.42954Z" fill="#7DBC0F"/>
<path fill-rule="evenodd" clip-rule="evenodd" d="M20.0161 6.76512C20.2588 5.25174 19.9756 3.95178 19.1667 2.86525C18.3577 1.77872 15.7084 0.983221 11.2186 0.47876C12.2143 1.06083 12.9828 1.85633 13.5242 2.86525C14.3362 4.37863 15.041 6.18305 16.1331 6.76512C16.8611 7.15317 17.9735 7.26958 19.47 7.11437C17.9515 5.27391 17.0102 4.17907 16.6462 3.82982C16.3556 3.55107 18.2203 4.67714 19.1667 5.65919C19.3262 5.82474 19.6093 6.19338 20.0161 6.76512Z" fill="#7DBC0F"/>
<path fill-rule="evenodd" clip-rule="evenodd" d="M22.2957 26.136C22.2957 24.3831 20.9074 22.9613 19.1928 22.9613C17.4813 22.9613 16.0943 24.3821 16.0943 26.136C16.093 27.892 17.4813 29.3124 19.1958 29.3124C20.9084 29.3138 22.2957 27.8934 22.2957 26.136ZM11.8455 24.3873C11.8455 26.1554 12.3346 27.8015 13.1844 29.1991C12.717 28.2701 12.4527 27.2164 12.4541 26.0982C12.4527 22.3464 15.4246 19.3 19.0916 19.3C22.7573 19.3 25.7268 22.344 25.7295 26.0972C25.7295 29.8538 22.7573 32.8982 19.0916 32.8964C17.9998 32.8964 16.9696 32.6264 16.0629 32.1488C17.4292 33.0171 19.0375 33.519 20.7622 33.519C25.6872 33.519 29.6815 29.4313 29.6815 24.3873C29.6815 19.3419 25.6858 15.2525 20.7622 15.2525C15.8371 15.2525 11.8445 19.3419 11.8455 24.3873ZM31.5605 18.3197C32.453 20.0969 32.961 22.1131 32.961 24.2497C32.961 31.4327 27.2765 37.2548 20.2609 37.2562C13.246 37.2562 7.56252 31.4358 7.56151 24.2497C7.56151 17.0677 13.247 11.2459 20.2592 11.2459C22.3481 11.2459 24.3155 11.7631 26.0527 12.6775C23.442 11.0147 20.3614 10.0532 17.0633 10.0532C7.63901 10.0532 0 17.8764 0 27.5273C0 37.1768 7.63901 45 17.0609 45C26.4836 44.9986 34.1236 37.1779 34.1236 27.5245C34.1236 24.1471 33.1854 20.9936 31.5605 18.3197Z" fill="#FF9F06"/>
<path d="M43.1682 16.396V19.1472H47.0634V30.9855H49.9226V19.1472H53.8385V16.396H43.1682Z" fill="#1E1147"/>
<path d="M61.3019 21.7941C60.4939 20.7728 59.375 20.2726 57.9247 20.2726C56.5365 20.2726 55.3555 20.8145 54.361 21.8775C53.3872 22.9404 52.89 24.2326 52.89 25.7749C52.89 27.3173 53.3872 28.6303 54.361 29.6933C55.3555 30.7562 56.5365 31.2773 57.9247 31.2773C59.375 31.2773 60.4939 30.7771 61.3019 29.7558V30.9855H63.9747V20.5644H61.3019V21.7941ZM56.3708 27.9008C55.8321 27.3381 55.5627 26.6295 55.5627 25.7749C55.5627 24.9204 55.8321 24.2118 56.3708 23.6699C56.9095 23.1072 57.5932 22.8362 58.422 22.8362C59.2507 22.8362 59.9345 23.1072 60.4731 23.6699C61.0326 24.2118 61.3019 24.9204 61.3019 25.7749C61.3019 26.6295 61.0326 27.3381 60.4731 27.9008C59.9345 28.4427 59.2507 28.7137 58.422 28.7137C57.5932 28.7137 56.9095 28.4427 56.3708 27.9008Z" fill="#1E1147"/>
<path d="M72.1582 20.2726C70.7493 20.2726 69.7134 20.752 69.0711 21.7316V20.5644H66.3983V30.9855H69.0711V25.3581C69.0711 23.6282 69.962 22.7737 71.3502 22.7737C72.5933 22.7737 73.4013 23.524 73.4013 24.9204V30.9855H76.0741V24.5869C76.0741 23.2322 75.7012 22.1901 74.9553 21.4189C74.2301 20.6478 73.2978 20.2726 72.1582 20.2726Z" fill="#1E1147"/>
<path d="M86.2917 21.8566C85.5043 20.7937 84.4062 20.2726 82.9766 20.2726C81.5263 20.2726 80.3039 20.7937 79.3093 21.8358C78.3148 22.8779 77.8176 24.1284 77.8176 25.6082C77.8176 27.088 78.3148 28.3594 79.2886 29.4015C80.2831 30.4227 81.5056 30.9438 82.9766 30.9438C84.4062 30.9438 85.5043 30.4227 86.2917 29.3598V30.4853C86.2917 32.1318 85.2557 33.0488 83.5775 33.0488C82.2929 33.0488 81.3813 32.5695 80.8633 31.5899L78.5842 32.9029C79.4958 34.5703 81.2569 35.4457 83.4946 35.4457C84.9864 35.4457 86.2502 35.0288 87.3069 34.1743C88.3636 33.3198 88.9023 32.0901 88.9023 30.4853V20.5644H86.2917V21.8566ZM86.2917 25.6082C86.2917 27.2756 85.0692 28.4636 83.391 28.4636C81.7128 28.4636 80.4903 27.2756 80.4903 25.6082C80.4903 24.7954 80.7597 24.1076 81.2984 23.5865C81.8578 23.0446 82.5415 22.7737 83.391 22.7737C84.2405 22.7737 84.9242 23.0446 85.4629 23.5865C86.0223 24.1076 86.2917 24.7954 86.2917 25.6082Z" fill="#1E1147"/>
<path d="M101.395 26.8796C101.458 26.4836 101.499 26.1293 101.499 25.7749C101.499 24.2118 101.002 22.9196 100.007 21.8566C99.0334 20.7937 97.7695 20.2726 96.257 20.2726C94.6617 20.2726 93.3357 20.7937 92.3204 21.8566C91.3052 22.8987 90.7872 24.2118 90.7872 25.7749C90.7872 27.3589 91.3052 28.672 92.3411 29.7141C93.3771 30.7562 94.7446 31.2773 96.4642 31.2773C98.4533 31.2773 99.9658 30.5269 100.981 29.0472L98.8262 27.7966C98.3082 28.4844 97.5209 28.8387 96.5057 28.8387C94.9103 28.8387 93.9365 28.1926 93.5843 26.8796H101.395ZM93.5428 24.7954C93.8536 23.4615 94.8274 22.6903 96.257 22.6903C97.4795 22.6903 98.5154 23.3781 98.8262 24.7954H93.5428Z" fill="#1E1147"/>
<path d="M106.038 20.5644H103.365V30.9855H106.038V26.0042C106.038 25.0038 106.348 24.2952 106.991 23.8575C107.633 23.4198 108.379 23.2531 109.187 23.3573V20.356C107.778 20.356 106.535 21.0229 106.038 22.3568V20.5644Z" fill="#1E1147"/>
<path d="M112.076 19.3139C112.988 19.3139 113.734 18.5636 113.734 17.6674C113.734 16.7712 112.988 16 112.076 16C111.185 16 110.439 16.7712 110.439 17.6674C110.439 18.5636 111.185 19.3139 112.076 19.3139ZM113.423 30.9855V20.5644H110.75V30.9855H113.423Z" fill="#1E1147"/>
<path d="M121.629 20.2726C120.22 20.2726 119.184 20.752 118.542 21.7316V20.5644H115.869V30.9855H118.542V25.3581C118.542 23.6282 119.433 22.7737 120.821 22.7737C122.064 22.7737 122.872 23.524 122.872 24.9204V30.9855H125.545V24.5869C125.545 23.2322 125.172 22.1901 124.426 21.4189C123.701 20.6478 122.769 20.2726 121.629 20.2726Z" fill="#1E1147"/>
<path d="M137.896 26.8796C137.959 26.4836 138 26.1293 138 25.7749C138 24.2118 137.503 22.9196 136.508 21.8566C135.535 20.7937 134.271 20.2726 132.758 20.2726C131.163 20.2726 129.837 20.7937 128.822 21.8566C127.806 22.8987 127.288 24.2118 127.288 25.7749C127.288 27.3589 127.806 28.672 128.842 29.7141C129.878 30.7562 131.246 31.2773 132.965 31.2773C134.954 31.2773 136.467 30.5269 137.482 29.0472L135.327 27.7966C134.809 28.4844 134.022 28.8387 133.007 28.8387C131.411 28.8387 130.438 28.1926 130.085 26.8796H137.896ZM130.044 24.7954C130.355 23.4615 131.329 22.6903 132.758 22.6903C133.981 22.6903 135.017 23.3781 135.327 24.7954H130.044Z" fill="#1E1147"/>
</svg>
